<mxfile host="app.diagrams.net" agent="Mozilla/5.0 (Windows NT 10.0; Win64; x64) AppleWebKit/537.36 (KHTML, like Gecko) Chrome/131.0.0.0 Safari/537.36" version="25.0.1">
  <diagram id="C5RBs43oDa-KdzZeNtuy" name="Page-1">
    <mxGraphModel dx="1105" dy="549" grid="1" gridSize="10" guides="1" tooltips="1" connect="1" arrows="1" fold="1" page="1" pageScale="1" pageWidth="827" pageHeight="1169" math="0" shadow="0">
      <root>
        <mxCell id="WIyWlLk6GJQsqaUBKTNV-0" />
        <mxCell id="WIyWlLk6GJQsqaUBKTNV-1" parent="WIyWlLk6GJQsqaUBKTNV-0" />
        <mxCell id="WoO6IQ57f2WmrNM-3Yns-0" value="Клієнт" style="shape=umlActor;verticalLabelPosition=bottom;verticalAlign=top;html=1;outlineConnect=0;" vertex="1" parent="WIyWlLk6GJQsqaUBKTNV-1">
          <mxGeometry x="132" y="335" width="30" height="60" as="geometry" />
        </mxCell>
        <mxCell id="WoO6IQ57f2WmrNM-3Yns-1" value="" style="endArrow=none;html=1;rounded=0;" edge="1" parent="WIyWlLk6GJQsqaUBKTNV-1" source="WoO6IQ57f2WmrNM-3Yns-0">
          <mxGeometry width="50" height="50" relative="1" as="geometry">
            <mxPoint x="109" y="350" as="sourcePoint" />
            <mxPoint x="189" y="270" as="targetPoint" />
          </mxGeometry>
        </mxCell>
        <mxCell id="WoO6IQ57f2WmrNM-3Yns-2" value="" style="ellipse;whiteSpace=wrap;html=1;" vertex="1" parent="WIyWlLk6GJQsqaUBKTNV-1">
          <mxGeometry x="149" y="220" width="120" height="70" as="geometry" />
        </mxCell>
        <mxCell id="WoO6IQ57f2WmrNM-3Yns-3" value="Вхід в систему" style="text;html=1;align=center;verticalAlign=middle;whiteSpace=wrap;rounded=0;" vertex="1" parent="WIyWlLk6GJQsqaUBKTNV-1">
          <mxGeometry x="179" y="240" width="60" height="30" as="geometry" />
        </mxCell>
        <mxCell id="WoO6IQ57f2WmrNM-3Yns-4" value="" style="endArrow=none;html=1;rounded=0;" edge="1" parent="WIyWlLk6GJQsqaUBKTNV-1">
          <mxGeometry width="50" height="50" relative="1" as="geometry">
            <mxPoint x="269" y="260" as="sourcePoint" />
            <mxPoint x="349" y="260" as="targetPoint" />
            <Array as="points">
              <mxPoint x="269" y="260" />
            </Array>
          </mxGeometry>
        </mxCell>
        <mxCell id="WoO6IQ57f2WmrNM-3Yns-5" value="" style="ellipse;whiteSpace=wrap;html=1;" vertex="1" parent="WIyWlLk6GJQsqaUBKTNV-1">
          <mxGeometry x="284" y="220" width="120" height="70" as="geometry" />
        </mxCell>
        <mxCell id="WoO6IQ57f2WmrNM-3Yns-8" value="Обрати фільм" style="text;html=1;align=center;verticalAlign=middle;whiteSpace=wrap;rounded=0;" vertex="1" parent="WIyWlLk6GJQsqaUBKTNV-1">
          <mxGeometry x="314" y="240" width="60" height="30" as="geometry" />
        </mxCell>
        <mxCell id="WoO6IQ57f2WmrNM-3Yns-9" value="" style="endArrow=none;html=1;rounded=0;" edge="1" parent="WIyWlLk6GJQsqaUBKTNV-1">
          <mxGeometry width="50" height="50" relative="1" as="geometry">
            <mxPoint x="404" y="260" as="sourcePoint" />
            <mxPoint x="474" y="260" as="targetPoint" />
          </mxGeometry>
        </mxCell>
        <mxCell id="WoO6IQ57f2WmrNM-3Yns-10" value="" style="ellipse;whiteSpace=wrap;html=1;" vertex="1" parent="WIyWlLk6GJQsqaUBKTNV-1">
          <mxGeometry x="419" y="220" width="120" height="70" as="geometry" />
        </mxCell>
        <mxCell id="WoO6IQ57f2WmrNM-3Yns-11" value="Обрати сеанс" style="text;html=1;align=center;verticalAlign=middle;whiteSpace=wrap;rounded=0;" vertex="1" parent="WIyWlLk6GJQsqaUBKTNV-1">
          <mxGeometry x="449" y="240" width="60" height="30" as="geometry" />
        </mxCell>
        <mxCell id="WoO6IQ57f2WmrNM-3Yns-16" value="" style="ellipse;whiteSpace=wrap;html=1;shadow=0;" vertex="1" parent="WIyWlLk6GJQsqaUBKTNV-1">
          <mxGeometry x="99" y="145" width="70" height="40" as="geometry" />
        </mxCell>
        <mxCell id="WoO6IQ57f2WmrNM-3Yns-19" value="" style="ellipse;whiteSpace=wrap;html=1;shadow=0;" vertex="1" parent="WIyWlLk6GJQsqaUBKTNV-1">
          <mxGeometry x="239" y="140" width="70" height="40" as="geometry" />
        </mxCell>
        <mxCell id="WoO6IQ57f2WmrNM-3Yns-20" value="Вірний пароль" style="text;html=1;align=center;verticalAlign=middle;whiteSpace=wrap;rounded=0;" vertex="1" parent="WIyWlLk6GJQsqaUBKTNV-1">
          <mxGeometry x="104" y="150" width="60" height="30" as="geometry" />
        </mxCell>
        <mxCell id="WoO6IQ57f2WmrNM-3Yns-21" value="Хибний пароль" style="text;html=1;align=center;verticalAlign=middle;whiteSpace=wrap;rounded=0;" vertex="1" parent="WIyWlLk6GJQsqaUBKTNV-1">
          <mxGeometry x="244" y="145" width="60" height="30" as="geometry" />
        </mxCell>
        <mxCell id="WoO6IQ57f2WmrNM-3Yns-24" value="&amp;lt;&amp;lt;extend&amp;gt;&amp;gt;" style="html=1;verticalAlign=bottom;labelBackgroundColor=none;endArrow=open;endFill=0;dashed=1;rounded=0;exitX=0.5;exitY=1;exitDx=0;exitDy=0;entryX=0;entryY=0;entryDx=0;entryDy=0;" edge="1" parent="WIyWlLk6GJQsqaUBKTNV-1" source="WoO6IQ57f2WmrNM-3Yns-16" target="WoO6IQ57f2WmrNM-3Yns-2">
          <mxGeometry x="-0.1153" y="-7" width="160" relative="1" as="geometry">
            <mxPoint x="179" y="310" as="sourcePoint" />
            <mxPoint x="339" y="310" as="targetPoint" />
            <mxPoint as="offset" />
          </mxGeometry>
        </mxCell>
        <mxCell id="WoO6IQ57f2WmrNM-3Yns-25" value="&amp;lt;&amp;lt;extend&amp;gt;&amp;gt;" style="html=1;verticalAlign=bottom;labelBackgroundColor=none;endArrow=open;endFill=0;dashed=1;rounded=0;entryX=0.5;entryY=0;entryDx=0;entryDy=0;exitX=0;exitY=1;exitDx=0;exitDy=0;" edge="1" parent="WIyWlLk6GJQsqaUBKTNV-1" source="WoO6IQ57f2WmrNM-3Yns-19" target="WoO6IQ57f2WmrNM-3Yns-2">
          <mxGeometry x="-0.0396" y="-6" width="160" relative="1" as="geometry">
            <mxPoint x="319" y="310" as="sourcePoint" />
            <mxPoint x="479" y="310" as="targetPoint" />
            <mxPoint as="offset" />
          </mxGeometry>
        </mxCell>
        <mxCell id="WoO6IQ57f2WmrNM-3Yns-26" value="" style="endArrow=none;html=1;rounded=0;entryX=0;entryY=0.5;entryDx=0;entryDy=0;" edge="1" parent="WIyWlLk6GJQsqaUBKTNV-1" source="WoO6IQ57f2WmrNM-3Yns-0" target="WoO6IQ57f2WmrNM-3Yns-28">
          <mxGeometry width="50" height="50" relative="1" as="geometry">
            <mxPoint x="189" y="470" as="sourcePoint" />
            <mxPoint x="159" y="420" as="targetPoint" />
          </mxGeometry>
        </mxCell>
        <mxCell id="WoO6IQ57f2WmrNM-3Yns-28" value="" style="ellipse;whiteSpace=wrap;html=1;" vertex="1" parent="WIyWlLk6GJQsqaUBKTNV-1">
          <mxGeometry x="208" y="335" width="120" height="70" as="geometry" />
        </mxCell>
        <mxCell id="WoO6IQ57f2WmrNM-3Yns-29" value="Реєстрація" style="text;html=1;align=center;verticalAlign=middle;whiteSpace=wrap;rounded=0;" vertex="1" parent="WIyWlLk6GJQsqaUBKTNV-1">
          <mxGeometry x="238" y="355" width="60" height="30" as="geometry" />
        </mxCell>
        <mxCell id="WoO6IQ57f2WmrNM-3Yns-37" value="" style="endArrow=none;html=1;rounded=0;entryX=1;entryY=0.5;entryDx=0;entryDy=0;" edge="1" parent="WIyWlLk6GJQsqaUBKTNV-1" target="WoO6IQ57f2WmrNM-3Yns-10">
          <mxGeometry width="50" height="50" relative="1" as="geometry">
            <mxPoint x="569" y="255" as="sourcePoint" />
            <mxPoint x="549" y="320" as="targetPoint" />
          </mxGeometry>
        </mxCell>
        <mxCell id="WoO6IQ57f2WmrNM-3Yns-38" value="" style="ellipse;whiteSpace=wrap;html=1;" vertex="1" parent="WIyWlLk6GJQsqaUBKTNV-1">
          <mxGeometry x="569" y="220" width="120" height="70" as="geometry" />
        </mxCell>
        <mxCell id="WoO6IQ57f2WmrNM-3Yns-39" value="Обрати місце" style="text;html=1;align=center;verticalAlign=middle;whiteSpace=wrap;rounded=0;" vertex="1" parent="WIyWlLk6GJQsqaUBKTNV-1">
          <mxGeometry x="599" y="240" width="60" height="30" as="geometry" />
        </mxCell>
        <mxCell id="WoO6IQ57f2WmrNM-3Yns-40" value="" style="endArrow=none;html=1;rounded=0;entryX=1;entryY=1;entryDx=0;entryDy=0;exitX=0.5;exitY=0;exitDx=0;exitDy=0;" edge="1" parent="WIyWlLk6GJQsqaUBKTNV-1" source="WoO6IQ57f2WmrNM-3Yns-41" target="WoO6IQ57f2WmrNM-3Yns-38">
          <mxGeometry width="50" height="50" relative="1" as="geometry">
            <mxPoint x="689" y="300" as="sourcePoint" />
            <mxPoint x="699" y="330" as="targetPoint" />
          </mxGeometry>
        </mxCell>
        <mxCell id="WoO6IQ57f2WmrNM-3Yns-41" value="" style="ellipse;whiteSpace=wrap;html=1;" vertex="1" parent="WIyWlLk6GJQsqaUBKTNV-1">
          <mxGeometry x="649" y="300" width="120" height="70" as="geometry" />
        </mxCell>
        <mxCell id="WoO6IQ57f2WmrNM-3Yns-42" value="Бронювання квитка" style="text;html=1;align=center;verticalAlign=middle;whiteSpace=wrap;rounded=0;" vertex="1" parent="WIyWlLk6GJQsqaUBKTNV-1">
          <mxGeometry x="679" y="320" width="60" height="30" as="geometry" />
        </mxCell>
        <mxCell id="WoO6IQ57f2WmrNM-3Yns-43" value="Адміністратор" style="shape=umlActor;verticalLabelPosition=bottom;verticalAlign=top;html=1;outlineConnect=0;" vertex="1" parent="WIyWlLk6GJQsqaUBKTNV-1">
          <mxGeometry x="400" y="380" width="30" height="60" as="geometry" />
        </mxCell>
        <mxCell id="WoO6IQ57f2WmrNM-3Yns-48" value="" style="ellipse;whiteSpace=wrap;html=1;" vertex="1" parent="WIyWlLk6GJQsqaUBKTNV-1">
          <mxGeometry x="238" y="500" width="120" height="70" as="geometry" />
        </mxCell>
        <mxCell id="WoO6IQ57f2WmrNM-3Yns-49" value="Управління фільмами" style="text;html=1;align=center;verticalAlign=middle;whiteSpace=wrap;rounded=0;" vertex="1" parent="WIyWlLk6GJQsqaUBKTNV-1">
          <mxGeometry x="268" y="520" width="60" height="30" as="geometry" />
        </mxCell>
        <mxCell id="WoO6IQ57f2WmrNM-3Yns-54" value="Касир&amp;nbsp;" style="shape=umlActor;verticalLabelPosition=bottom;verticalAlign=top;html=1;outlineConnect=0;" vertex="1" parent="WIyWlLk6GJQsqaUBKTNV-1">
          <mxGeometry x="59" y="280" width="30" height="60" as="geometry" />
        </mxCell>
        <mxCell id="WoO6IQ57f2WmrNM-3Yns-55" value="" style="endArrow=none;html=1;rounded=0;entryX=0;entryY=0.5;entryDx=0;entryDy=0;" edge="1" parent="WIyWlLk6GJQsqaUBKTNV-1" source="WoO6IQ57f2WmrNM-3Yns-54" target="WoO6IQ57f2WmrNM-3Yns-2">
          <mxGeometry width="50" height="50" relative="1" as="geometry">
            <mxPoint x="619" y="410" as="sourcePoint" />
            <mxPoint x="669" y="360" as="targetPoint" />
          </mxGeometry>
        </mxCell>
        <mxCell id="WoO6IQ57f2WmrNM-3Yns-63" value="" style="endArrow=none;html=1;rounded=0;entryX=0.5;entryY=1;entryDx=0;entryDy=0;" edge="1" parent="WIyWlLk6GJQsqaUBKTNV-1" target="WoO6IQ57f2WmrNM-3Yns-41">
          <mxGeometry width="50" height="50" relative="1" as="geometry">
            <mxPoint x="709" y="410" as="sourcePoint" />
            <mxPoint x="699" y="380" as="targetPoint" />
          </mxGeometry>
        </mxCell>
        <mxCell id="WoO6IQ57f2WmrNM-3Yns-64" value="" style="ellipse;whiteSpace=wrap;html=1;" vertex="1" parent="WIyWlLk6GJQsqaUBKTNV-1">
          <mxGeometry x="649" y="410" width="120" height="70" as="geometry" />
        </mxCell>
        <mxCell id="WoO6IQ57f2WmrNM-3Yns-66" value="Оплата квитка" style="text;html=1;align=center;verticalAlign=middle;whiteSpace=wrap;rounded=0;" vertex="1" parent="WIyWlLk6GJQsqaUBKTNV-1">
          <mxGeometry x="679" y="430" width="60" height="30" as="geometry" />
        </mxCell>
        <mxCell id="WoO6IQ57f2WmrNM-3Yns-68" value="" style="ellipse;whiteSpace=wrap;html=1;" vertex="1" parent="WIyWlLk6GJQsqaUBKTNV-1">
          <mxGeometry x="389" y="490" width="120" height="70" as="geometry" />
        </mxCell>
        <mxCell id="WoO6IQ57f2WmrNM-3Yns-69" value="Управління залами" style="text;html=1;align=center;verticalAlign=middle;whiteSpace=wrap;rounded=0;" vertex="1" parent="WIyWlLk6GJQsqaUBKTNV-1">
          <mxGeometry x="419" y="510" width="60" height="30" as="geometry" />
        </mxCell>
        <mxCell id="WoO6IQ57f2WmrNM-3Yns-73" value="" style="endArrow=none;html=1;rounded=0;exitX=0.5;exitY=0;exitDx=0;exitDy=0;" edge="1" parent="WIyWlLk6GJQsqaUBKTNV-1" source="WoO6IQ57f2WmrNM-3Yns-48" target="WoO6IQ57f2WmrNM-3Yns-43">
          <mxGeometry width="50" height="50" relative="1" as="geometry">
            <mxPoint x="269" y="480" as="sourcePoint" />
            <mxPoint x="319" y="430" as="targetPoint" />
          </mxGeometry>
        </mxCell>
        <mxCell id="WoO6IQ57f2WmrNM-3Yns-74" value="" style="endArrow=none;html=1;rounded=0;exitX=0.5;exitY=0;exitDx=0;exitDy=0;" edge="1" parent="WIyWlLk6GJQsqaUBKTNV-1" source="WoO6IQ57f2WmrNM-3Yns-68" target="WoO6IQ57f2WmrNM-3Yns-43">
          <mxGeometry width="50" height="50" relative="1" as="geometry">
            <mxPoint x="499" y="460" as="sourcePoint" />
            <mxPoint x="549" y="410" as="targetPoint" />
          </mxGeometry>
        </mxCell>
        <mxCell id="WoO6IQ57f2WmrNM-3Yns-81" value="&amp;lt;&amp;lt;include&amp;gt;&amp;gt;" style="html=1;verticalAlign=bottom;labelBackgroundColor=none;endArrow=open;endFill=0;dashed=1;rounded=0;entryX=0;entryY=1;entryDx=0;entryDy=0;exitX=1;exitY=0;exitDx=0;exitDy=0;" edge="1" parent="WIyWlLk6GJQsqaUBKTNV-1" source="WoO6IQ57f2WmrNM-3Yns-88" target="WoO6IQ57f2WmrNM-3Yns-48">
          <mxGeometry width="160" relative="1" as="geometry">
            <mxPoint x="118.68300399043414" y="615.8204019629421" as="sourcePoint" />
            <mxPoint x="274" y="610" as="targetPoint" />
          </mxGeometry>
        </mxCell>
        <mxCell id="WoO6IQ57f2WmrNM-3Yns-84" value="" style="ellipse;whiteSpace=wrap;html=1;shadow=0;" vertex="1" parent="WIyWlLk6GJQsqaUBKTNV-1">
          <mxGeometry x="224" y="630" width="86" height="60" as="geometry" />
        </mxCell>
        <mxCell id="WoO6IQ57f2WmrNM-3Yns-87" value="Редагування&lt;div&gt;Інформації про фільм&lt;/div&gt;" style="text;html=1;align=center;verticalAlign=middle;whiteSpace=wrap;rounded=0;" vertex="1" parent="WIyWlLk6GJQsqaUBKTNV-1">
          <mxGeometry x="237" y="645" width="60" height="30" as="geometry" />
        </mxCell>
        <mxCell id="WoO6IQ57f2WmrNM-3Yns-88" value="" style="ellipse;whiteSpace=wrap;html=1;shadow=0;" vertex="1" parent="WIyWlLk6GJQsqaUBKTNV-1">
          <mxGeometry x="104" y="615" width="86" height="60" as="geometry" />
        </mxCell>
        <mxCell id="WoO6IQ57f2WmrNM-3Yns-89" value="Додавання фільмів" style="text;html=1;align=center;verticalAlign=middle;whiteSpace=wrap;rounded=0;" vertex="1" parent="WIyWlLk6GJQsqaUBKTNV-1">
          <mxGeometry x="117" y="630" width="60" height="30" as="geometry" />
        </mxCell>
        <mxCell id="WoO6IQ57f2WmrNM-3Yns-90" value="&amp;lt;&amp;lt;include&amp;gt;&amp;gt;" style="html=1;verticalAlign=bottom;labelBackgroundColor=none;endArrow=open;endFill=0;dashed=1;rounded=0;exitX=0.5;exitY=0;exitDx=0;exitDy=0;entryX=0.415;entryY=1.009;entryDx=0;entryDy=0;entryPerimeter=0;" edge="1" parent="WIyWlLk6GJQsqaUBKTNV-1" source="WoO6IQ57f2WmrNM-3Yns-84" target="WoO6IQ57f2WmrNM-3Yns-48">
          <mxGeometry x="-0.0263" y="3" width="160" relative="1" as="geometry">
            <mxPoint x="275.96" y="591.75" as="sourcePoint" />
            <mxPoint x="268.99999999999994" y="560" as="targetPoint" />
            <mxPoint as="offset" />
          </mxGeometry>
        </mxCell>
        <mxCell id="WoO6IQ57f2WmrNM-3Yns-91" value="Видалення фільмів" style="ellipse;whiteSpace=wrap;html=1;shadow=0;" vertex="1" parent="WIyWlLk6GJQsqaUBKTNV-1">
          <mxGeometry x="348" y="615" width="86" height="60" as="geometry" />
        </mxCell>
        <mxCell id="WoO6IQ57f2WmrNM-3Yns-92" value="&amp;lt;&amp;lt;include&amp;gt;&amp;gt;" style="html=1;verticalAlign=bottom;labelBackgroundColor=none;endArrow=open;endFill=0;dashed=1;rounded=0;exitX=0.5;exitY=0;exitDx=0;exitDy=0;entryX=0.78;entryY=0.95;entryDx=0;entryDy=0;entryPerimeter=0;" edge="1" parent="WIyWlLk6GJQsqaUBKTNV-1" source="WoO6IQ57f2WmrNM-3Yns-91" target="WoO6IQ57f2WmrNM-3Yns-48">
          <mxGeometry width="160" relative="1" as="geometry">
            <mxPoint x="374" y="600" as="sourcePoint" />
            <mxPoint x="534" y="600" as="targetPoint" />
          </mxGeometry>
        </mxCell>
        <mxCell id="WoO6IQ57f2WmrNM-3Yns-93" value="Перегляд інформації про оплату" style="ellipse;whiteSpace=wrap;html=1;" vertex="1" parent="WIyWlLk6GJQsqaUBKTNV-1">
          <mxGeometry x="109" y="470" width="120" height="70" as="geometry" />
        </mxCell>
        <mxCell id="WoO6IQ57f2WmrNM-3Yns-94" value="" style="endArrow=none;html=1;rounded=0;exitX=0.664;exitY=0.043;exitDx=0;exitDy=0;exitPerimeter=0;" edge="1" parent="WIyWlLk6GJQsqaUBKTNV-1" source="WoO6IQ57f2WmrNM-3Yns-93" target="WoO6IQ57f2WmrNM-3Yns-43">
          <mxGeometry width="50" height="50" relative="1" as="geometry">
            <mxPoint x="269" y="470" as="sourcePoint" />
            <mxPoint x="319" y="420" as="targetPoint" />
          </mxGeometry>
        </mxCell>
        <mxCell id="WoO6IQ57f2WmrNM-3Yns-95" value="Управління сеансами" style="ellipse;whiteSpace=wrap;html=1;" vertex="1" parent="WIyWlLk6GJQsqaUBKTNV-1">
          <mxGeometry x="549" y="500" width="120" height="70" as="geometry" />
        </mxCell>
        <mxCell id="WoO6IQ57f2WmrNM-3Yns-97" value="" style="endArrow=none;html=1;rounded=0;" edge="1" parent="WIyWlLk6GJQsqaUBKTNV-1" source="WoO6IQ57f2WmrNM-3Yns-95" target="WoO6IQ57f2WmrNM-3Yns-43">
          <mxGeometry width="50" height="50" relative="1" as="geometry">
            <mxPoint x="629" y="720" as="sourcePoint" />
            <mxPoint x="679" y="670" as="targetPoint" />
          </mxGeometry>
        </mxCell>
        <mxCell id="WoO6IQ57f2WmrNM-3Yns-100" style="edgeStyle=orthogonalEdgeStyle;rounded=0;orthogonalLoop=1;jettySize=auto;html=1;exitX=0.5;exitY=0;exitDx=0;exitDy=0;entryX=0.388;entryY=0.972;entryDx=0;entryDy=0;entryPerimeter=0;" edge="1" parent="WIyWlLk6GJQsqaUBKTNV-1" source="WoO6IQ57f2WmrNM-3Yns-28" target="WoO6IQ57f2WmrNM-3Yns-2">
          <mxGeometry relative="1" as="geometry" />
        </mxCell>
        <mxCell id="WoO6IQ57f2WmrNM-3Yns-101" value="" style="endArrow=none;html=1;rounded=0;exitX=0.341;exitY=0.044;exitDx=0;exitDy=0;exitPerimeter=0;" edge="1" parent="WIyWlLk6GJQsqaUBKTNV-1" source="WoO6IQ57f2WmrNM-3Yns-93" target="WoO6IQ57f2WmrNM-3Yns-54">
          <mxGeometry width="50" height="50" relative="1" as="geometry">
            <mxPoint x="129" y="470" as="sourcePoint" />
            <mxPoint x="179" y="420" as="targetPoint" />
          </mxGeometry>
        </mxCell>
      </root>
    </mxGraphModel>
  </diagram>
</mxfile>
